<svg width="30" height="30" viewBox="0 0 30 30" fill="none" xmlns="http://www.w3.org/2000/svg">
<g clip-path="url(#clip0_75_1396)">
<path d="M12.6719 0.353875C12.4159 1.35834 11.7963 2.09849 11.0807 2.37441C10.68 2.5289 10.6822 3.09483 11.0825 3.24964C11.798 3.52632 12.4161 4.26878 12.67 5.27384C12.7898 5.7479 13.46 5.74782 13.58 5.27384C13.8345 4.26899 14.4525 3.52816 15.1685 3.2533C15.5694 3.09941 15.5717 2.53338 15.172 2.37807C14.457 2.10023 13.8354 1.35853 13.5799 0.353875C13.5281 0.150067 13.3535 -1.24008e-05 13.1259 7.68531e-10C12.8982 1.24023e-05 12.7213 0.159781 12.6719 0.353875ZM27.2003 2.34328C26.9444 3.34775 26.3248 4.08789 25.6092 4.36382C25.2085 4.51831 25.2107 5.08426 25.6109 5.23905C26.3264 5.51575 26.9446 6.25819 27.1985 7.26325C27.3182 7.73731 27.9885 7.73723 28.1085 7.26325C28.3629 6.2584 28.9809 5.51756 29.6969 5.24271C30.0978 5.08881 30.101 4.52299 29.7005 4.36748C28.9854 4.08984 28.3638 3.34795 28.1084 2.34328C28.0565 2.13921 27.8816 1.98898 27.6544 1.98898C27.4272 1.98898 27.2499 2.14893 27.2003 2.34328ZM1.89065 7.84918C1.63475 8.85364 1.01508 9.59379 0.299475 9.86971C-0.101185 10.0242 -0.0990508 10.5901 0.301247 10.7449C1.01674 11.0216 1.63491 11.7641 1.88877 12.7691C2.00852 13.2432 2.67879 13.2431 2.7988 12.7691C3.05323 11.7643 3.67123 11.0235 4.38725 10.7486C4.78817 10.5947 4.79136 10.0289 4.39079 9.87337C3.67571 9.59574 3.05411 8.85384 2.79869 7.84918C2.74681 7.6451 2.57189 7.49487 2.34467 7.49487C2.11746 7.49487 1.94017 7.65482 1.89065 7.84918ZM13.8282 8.90568C12.9193 8.90568 12.1876 9.63738 12.1876 10.5463C12.1876 11.4552 12.9193 12.1869 13.8282 12.1869H27.4219C28.3308 12.1869 29.0625 11.4552 29.0625 10.5463C29.0625 9.63738 28.3308 8.90568 27.4219 8.90568H13.8282ZM8.90725 12.186C3.99419 12.186 0.000101355 16.1798 0.000101355 21.093C0.000101355 26.0061 3.99419 30 8.90725 30C13.8203 30 17.8135 26.0061 17.8135 21.093C17.8135 16.1798 13.8203 12.186 8.90725 12.186ZM14.6586 13.1244C15.8514 13.9886 16.8507 15.1053 17.5589 16.4056H24.6094C25.5183 16.4056 26.25 15.6738 26.25 14.765C26.25 13.8561 25.5183 13.1244 24.6094 13.1244H14.6586ZM8.9045 14.2971C12.6628 14.2971 15.7041 17.3449 15.7041 21.093C15.7041 24.8411 12.6551 27.8888 8.9045 27.8888C5.15393 27.8888 2.10947 24.8411 2.10947 21.093C2.10947 17.3449 5.14617 14.2971 8.9045 14.2971ZM8.9045 15.2346C5.67232 15.2346 3.04697 17.8515 3.04697 21.093C3.04697 24.3344 5.67352 26.9513 8.9045 26.9513C12.1355 26.9513 14.7666 24.3344 14.7666 21.093C14.7666 17.8515 12.1367 15.2346 8.9045 15.2346ZM8.90982 17.1087C9.13951 17.11 9.37672 17.267 9.37672 17.5765V18.0352C10.1981 18.2436 10.6919 18.8228 10.924 19.5567C11.0839 20.1707 10.2278 20.417 10.0277 19.8378C9.84017 19.2447 9.46704 18.9428 8.89242 18.9205C8.25376 18.9265 7.76083 19.4042 7.76083 20.0136C7.76083 20.3025 7.86429 20.3925 8.00344 20.4604C8.19044 20.5517 8.55418 20.6086 8.95834 20.6508C9.36253 20.6929 9.80891 20.7226 10.2282 20.9273C10.6474 21.132 10.9963 21.5326 10.9963 22.2145C10.9963 23.1864 10.2969 23.9959 9.37674 24.2021V24.6095C9.37674 25.2201 8.43923 25.2438 8.43923 24.6095V24.1975C7.82587 24.0398 7.19819 23.6092 6.89658 22.675C6.72633 22.0745 7.58636 21.8007 7.79196 22.3912C7.97033 22.9788 8.3911 23.3081 8.92722 23.3186C9.5659 23.3126 10.0588 22.813 10.0588 22.2145C10.0588 21.8952 9.93196 21.8329 9.81618 21.7686C9.62918 21.6773 9.26548 21.6231 8.86129 21.5809C8.45711 21.5389 8.01072 21.5092 7.59146 21.3045C7.1722 21.0997 6.82334 20.7047 6.82334 20.0136C6.82334 19.032 7.52097 18.2319 8.43923 18.0251C8.43923 18.0251 8.43923 17.726 8.43923 17.5765C8.43923 17.2616 8.68011 17.1073 8.90982 17.1087ZM18.0055 17.343C18.4284 18.3631 18.6851 19.4676 18.7398 20.6242H28.3601C29.269 20.6242 30.0008 19.8925 30.0008 18.9836C30.0008 18.0747 29.269 17.343 28.3601 17.343H18.0055ZM18.7398 21.5617C18.6851 22.7183 18.4284 23.8229 18.0055 24.8429H28.3601C29.269 24.8429 30.0008 24.1112 30.0008 23.2023C30.0008 22.2934 29.269 21.5617 28.3601 21.5617H18.7398ZM17.5597 25.7804C16.8539 27.0761 15.8592 28.1894 14.6721 29.0524C14.704 29.0542 14.7341 29.0613 14.7664 29.0613H28.3601C29.269 29.0613 30.0007 28.3296 30.0007 27.4207C30.0007 26.5118 29.269 25.7801 28.3601 25.7801L17.5597 25.7804Z" fill="white"/>
</g>
<defs>
<clipPath id="clip0_75_1396">
<rect width="30" height="30" fill="white"/>
</clipPath>
</defs>
</svg>
