<svg width="29" height="34" viewBox="0 0 29 34" fill="none" xmlns="http://www.w3.org/2000/svg">
<path d="M7.86534 7.75208C7.86189 7.76539 7.85787 7.7787 7.85327 7.79202" stroke="white" stroke-width="0.7"/>
<path d="M8.40794 8.58398L1.52978 12.7627C1.51911 12.7691 1.51023 12.7783 1.50406 12.7895C1.49788 12.8007 1.49463 12.8134 1.49463 12.8263C1.49463 12.8393 1.49788 12.852 1.50406 12.8632C1.51023 12.8744 1.51911 12.8836 1.52978 12.89L7.25495 16.369C7.32192 16.4098 7.3978 16.4313 7.4749 16.4313C7.55199 16.4313 7.62756 16.4098 7.69395 16.369L12.0938 13.6944" stroke="white" stroke-width="0.7"/>
<path d="M12.5639 14.4298L8.01489 17.1883C7.97257 17.2138 7.93741 17.2504 7.91297 17.2946C7.88853 17.3387 7.87568 17.3887 7.87573 17.4395L7.87739 24.4185C7.87748 24.4389 7.88263 24.4589 7.89233 24.4765C7.90203 24.4942 7.91595 24.5088 7.93269 24.5191C7.94944 24.5293 7.96843 24.5347 7.98779 24.5348C8.00715 24.535 8.0262 24.5297 8.04305 24.5197L12.6716 21.7019" stroke="white" stroke-width="0.7"/>
<path d="M12.8451 22.5993L7.6169 25.773C7.5701 25.8016 7.51683 25.8167 7.46246 25.8167C7.40808 25.8167 7.3545 25.8016 7.30712 25.773C5.39984 24.6214 3.46439 23.4461 1.50078 22.2468C1.47759 22.2317 1.45053 22.2375 1.41961 22.2643C1.41132 22.2716 1.40528 22.2812 1.40232 22.2918C1.39936 22.3024 1.39961 22.3135 1.40304 22.3236L4.2971 31.1311C4.30746 31.1619 4.32585 31.1891 4.35016 31.2094C4.37448 31.2298 4.40373 31.2426 4.4346 31.2462L12.5635 32.2338" stroke="white" stroke-width="0.7"/>
<path d="M1.11431 13.6537C1.1027 13.6466 1.08954 13.6429 1.07614 13.6429C1.06274 13.643 1.04958 13.6467 1.03799 13.6538C1.02639 13.6608 1.01678 13.671 1.01011 13.6833C1.00344 13.6955 0.999953 13.7094 1 13.7235L1.00166 20.8804C1.00161 20.8946 1.00511 20.9085 1.0118 20.9207C1.01849 20.933 1.02814 20.9432 1.03976 20.9502L6.93224 24.5235C6.94384 24.5305 6.95701 24.5342 6.97041 24.5342C6.98381 24.5342 6.99697 24.5305 7.00856 24.5234C7.02015 24.5163 7.02977 24.5062 7.03644 24.4939C7.04311 24.4817 7.04659 24.4678 7.04654 24.4537L7.03661 17.3107C7.03636 17.2968 7.03273 17.2833 7.02605 17.2714C7.01938 17.2595 7.00989 17.2496 6.9985 17.2426L1.11431 13.6537Z" stroke="white" stroke-width="0.7"/>
<path d="M12.5614 32.234C14.6664 32.4795 16.7752 32.7319 18.8879 32.9913C18.9652 33.0006 19.0276 33.0011 19.0751 32.993C19.1336 32.9825 19.1369 32.9616 19.085 32.9302L13.6017 29.6152C13.5904 29.6083 13.581 29.5984 13.5744 29.5864C13.5678 29.5745 13.5644 29.5609 13.5644 29.5471C13.5644 29.5333 13.5678 29.5198 13.5744 29.5078C13.581 29.4959 13.5904 29.486 13.6017 29.4791L27.146 21.2543C27.1567 21.2479 27.1655 21.2387 27.1717 21.2275C27.1779 21.2163 27.1812 21.2036 27.1812 21.1907C27.1812 21.1777 27.1779 21.165 27.1717 21.1538C27.1655 21.1426 27.1567 21.1334 27.146 21.127L21.4076 17.6392C21.3447 17.6015 21.2735 17.5819 21.2011 17.5822C21.1287 17.5825 21.0577 17.6027 20.9951 17.641L12.843 22.5995" stroke="white" stroke-width="0.7"/>
<path d="M12.6646 21.6971L20.6278 16.8572C20.6752 16.828 20.7145 16.7864 20.7418 16.7365C20.7692 16.6866 20.7835 16.6301 20.7835 16.5728L20.7852 9.61475C20.7852 9.59476 20.7801 9.57512 20.7706 9.55783C20.7611 9.54054 20.7474 9.5262 20.7309 9.51628C20.7144 9.50637 20.6957 9.50121 20.6768 9.50135C20.6578 9.50148 20.6392 9.5069 20.6228 9.51705L12.5569 14.425" stroke="white" stroke-width="0.7"/>
<path d="M12.0967 13.6984L21.0538 8.25134C21.1052 8.22008 21.1634 8.20362 21.2224 8.20362C21.2815 8.20362 21.3394 8.22008 21.3901 8.25134L27.0921 11.7199C27.2445 11.813 27.292 11.7717 27.2346 11.596L24.3902 2.95429C24.3728 2.90146 24.3416 2.85491 24.3002 2.82003C24.2589 2.78514 24.2091 2.76334 24.1566 2.75713L9.77745 1.00889C9.52344 0.977489 9.50687 1.02925 9.72775 1.16418L15.0371 4.38847C15.0511 4.39709 15.0628 4.4094 15.071 4.42416C15.0792 4.43893 15.0836 4.45562 15.0837 4.47258C15.0839 4.48955 15.0798 4.50617 15.072 4.52081C15.0641 4.53544 15.0526 4.54757 15.0388 4.55597L8.41077 8.58808" stroke="white" stroke-width="0.7"/>
<path d="M7.85327 7.80394C7.9118 7.85512 7.9731 7.86093 8.03715 7.82138C9.92787 6.65705 11.7087 5.5724 13.3796 4.56743C13.393 4.55929 13.4041 4.54763 13.4119 4.53363C13.4197 4.51962 13.4239 4.50377 13.4241 4.48767C13.4243 4.47157 13.4204 4.45579 13.4129 4.44192C13.4054 4.42805 13.3945 4.41657 13.3813 4.40866L7.97089 1.11806C7.91457 1.08433 7.8864 1.1012 7.8864 1.16866L7.86487 7.76555" stroke="white" stroke-width="0.7"/>
<path d="M27.5399 20.355C27.553 20.363 27.5678 20.3672 27.5829 20.3672C27.5981 20.3672 27.6129 20.363 27.626 20.3551C27.6391 20.3471 27.65 20.3357 27.6575 20.3219C27.6651 20.3081 27.6691 20.2925 27.6691 20.2765L27.6625 13.1248C27.6625 13.1089 27.6585 13.0933 27.6509 13.0795C27.6434 13.0657 27.6325 13.0543 27.6194 13.0463L21.7518 9.50446C21.7387 9.4965 21.7238 9.49231 21.7087 9.49231C21.6936 9.49231 21.6787 9.49649 21.6657 9.50445C21.6526 9.51241 21.6417 9.52385 21.6341 9.53763C21.6266 9.55142 21.6226 9.56706 21.6226 9.58298L21.6259 16.7015C21.6259 16.7175 21.6299 16.7331 21.6374 16.7469C21.645 16.7607 21.6559 16.7721 21.6689 16.7801L27.5399 20.355Z" stroke="white" stroke-width="0.7"/>
<path d="M20.6607 32.8877C20.674 32.8961 20.6893 32.9005 20.7048 32.9006C20.7204 32.9007 20.7357 32.8965 20.7492 32.8883C20.7626 32.8801 20.7738 32.8684 20.7816 32.8542C20.7893 32.84 20.7933 32.8238 20.7932 32.8075V26.2891C20.7933 26.2727 20.7893 26.2566 20.7816 26.2424C20.7738 26.2282 20.7626 26.2164 20.7492 26.2082C20.7357 26.2001 20.7204 26.1958 20.7048 26.1959C20.6893 26.196 20.674 26.2005 20.6607 26.2088L15.3082 29.468C15.2948 29.4761 15.2836 29.4878 15.2759 29.5019C15.2681 29.516 15.264 29.532 15.264 29.5483C15.264 29.5646 15.2681 29.5806 15.2759 29.5947C15.2836 29.6088 15.2948 29.6204 15.3082 29.6285L20.6607 32.8877Z" stroke="white" stroke-width="0.7"/>
</svg>
