<svg width="32" height="32" viewBox="0 0 32 32" fill="none" xmlns="http://www.w3.org/2000/svg">
<path d="M17.6107 30.6667C19.527 30.6663 21.4058 30.1359 23.0394 29.1342C24.6729 28.1325 25.9977 26.6985 26.867 24.9908C27.7364 23.2831 28.1166 21.3683 27.9654 19.458C27.8143 17.5477 27.1378 15.7165 26.0107 14.1667L17.0774 1.8827C16.9477 1.72137 16.7834 1.59118 16.5968 1.50173C16.4101 1.41228 16.2057 1.36584 15.9987 1.36584C15.7917 1.36584 15.5873 1.41228 15.4007 1.50173C15.214 1.59118 15.0497 1.72137 14.92 1.8827L5.98671 14.1667C4.8595 15.7166 4.18297 17.5481 4.03195 19.4587C3.88092 21.3692 4.26129 23.2842 5.13099 24.992C6.00068 26.6998 7.3258 28.1337 8.95977 29.1353C10.5937 30.1368 12.4729 30.6668 14.3894 30.6667H17.6107ZM6.66671 20.2774C6.6628 18.6443 7.17985 17.0525 8.14271 15.7334L16 4.93337L23.8574 15.7334C24.6958 16.8855 25.1991 18.2472 25.3116 19.6677C25.4241 21.0881 25.1414 22.5121 24.4948 23.7818C23.8482 25.0516 22.8629 26.1177 21.6479 26.8622C20.4329 27.6067 19.0356 28.0005 17.6107 28H14.3894C12.3421 27.9972 10.3794 27.1827 8.93174 25.735C7.48407 24.2873 6.66953 22.3247 6.66671 20.2774Z" fill="white"/>
<path d="M16.3267 24.3333C16.3267 23.9797 16.1862 23.6405 15.9362 23.3905C15.6861 23.1404 15.347 23 14.9934 23C14.2081 23.0007 13.4374 22.7874 12.7641 22.3832C12.0909 21.9789 11.5405 21.3988 11.172 20.7053C11.0911 20.5481 10.9798 20.4085 10.8445 20.2947C10.7091 20.1809 10.5525 20.0952 10.3837 20.0425C10.2149 19.9898 10.0374 19.9712 9.86132 19.9878C9.68528 20.0044 9.51431 20.0558 9.35834 20.1391C9.20237 20.2224 9.06452 20.3359 8.95282 20.473C8.84112 20.61 8.7578 20.7679 8.70771 20.9375C8.65761 21.1071 8.64175 21.2849 8.66103 21.4607C8.68032 21.6365 8.73437 21.8066 8.82004 21.9613C9.41553 23.0813 10.3048 24.018 11.3924 24.6708C12.48 25.3236 13.7249 25.6679 14.9934 25.6666C15.347 25.6666 15.6861 25.5262 15.9362 25.2761C16.1862 25.0261 16.3267 24.6869 16.3267 24.3333Z" fill="white"/>
</svg>
