<svg width="28" height="28" viewBox="0 0 28 28" fill="none" xmlns="http://www.w3.org/2000/svg">
<g clip-path="url(#clip0_75_1339)">
<path d="M6.54376 5.67694L17.706 2.63011L17.1149 1.43528C16.7281 0.658636 15.7849 0.337917 15.0082 0.724666L5.01562 5.67694H6.54376Z" fill="#F1F1F7"/>
<path d="M21.1709 2.71875C21.0326 2.71875 20.8942 2.73762 20.7559 2.77535L18.1336 3.49225L10.125 5.67754H19.2152H23.177L22.6865 3.879C22.4978 3.17782 21.8627 2.71875 21.1709 2.71875Z" fill="#F1F1F7"/>
<path d="M24.8148 6.77747H24.4564H23.969H23.4816H19.7619H6.09366H4.3014H2.79214H2.5123H1.57529C1.0785 6.77747 0.635149 7.007 0.345873 7.36859C0.213812 7.53524 0.113195 7.72705 0.0565974 7.93771C0.0220101 8.06977 0 8.20812 0 8.34962V8.53827V10.3305V25.8665C0 26.7344 0.704323 27.4387 1.57215 27.4387H24.8117C25.6795 27.4387 26.3838 26.7344 26.3838 25.8665V21.4802H17.0547C15.58 21.4802 14.382 20.2822 14.382 18.8076V17.3675V16.8801V16.3927V15.3111C14.382 14.5879 14.6713 13.9308 15.1398 13.4497C15.5549 13.022 16.1114 12.7328 16.734 12.6605C16.8377 12.6479 16.9446 12.6416 17.0515 12.6416H25.0758H25.5632H26.0505H26.3838V8.34962C26.387 7.48179 25.6827 6.77747 24.8148 6.77747Z" fill="#F1F1F7"/>
<path d="M27.4893 14.1443C27.3321 13.9997 27.1466 13.8896 26.9391 13.8173C26.7787 13.7639 26.6089 13.7324 26.4297 13.7324H26.3888H26.3574H25.87H24.1123H17.0565C16.1887 13.7324 15.4844 14.4367 15.4844 15.3046V16.0875V16.5748V17.0622V18.8041C15.4844 19.672 16.1887 20.3763 17.0565 20.3763H26.3888H26.4297C26.6089 20.3763 26.7787 20.3449 26.9391 20.2914C27.1466 20.2222 27.3321 20.109 27.4893 19.9644C27.8037 19.6783 28.0018 19.2632 28.0018 18.8042V15.3046C28.0018 14.8455 27.8037 14.4304 27.4893 14.1443ZM20.3392 17.3672C20.3392 17.8011 19.987 18.1533 19.5531 18.1533H19.0311C18.5972 18.1533 18.2451 17.8011 18.2451 17.3672V16.8452C18.2451 16.5937 18.3614 16.3704 18.5469 16.2289C18.6821 16.1252 18.8488 16.0592 19.0311 16.0592H19.1632H19.5531C19.987 16.0592 20.3392 16.4113 20.3392 16.8452V17.3672Z" fill="#F1F1F7"/>
</g>
<defs>
<clipPath id="clip0_75_1339">
<rect width="28" height="28" fill="white"/>
</clipPath>
</defs>
</svg>
