<svg xmlns="http://www.w3.org/2000/svg"  viewBox="0 0 16 16" width="40px" height="40px"><path fill="#f5ce85" d="M7.5 0.5A7 7 0 1 0 7.5 14.5A7 7 0 1 0 7.5 0.5Z"/><path fill="#967a44" d="M7.5,1C11.084,1,14,3.916,14,7.5S11.084,14,7.5,14S1,11.084,1,7.5S3.916,1,7.5,1 M7.5,0 C3.358,0,0,3.358,0,7.5S3.358,15,7.5,15S15,11.642,15,7.5S11.642,0,7.5,0L7.5,0z"/><path fill="#967a44" d="M6 3H7V4.779H6zM8 3H9V4.779H8zM6 10.221H7V12H6zM8 10.221H9V12H8z"/><path fill="#967a44" d="M5,4h2.654C8.18,4,8.572,4.023,8.83,4.069c0.258,0.046,0.489,0.142,0.693,0.289 s0.374,0.341,0.51,0.585c0.136,0.243,0.204,0.516,0.204,0.819c0,0.328-0.084,0.629-0.251,0.902C9.817,6.938,9.59,7.144,9.303,7.28 c0.405,0.124,0.716,0.336,0.933,0.635c0.218,0.299,0.326,0.651,0.326,1.055c0,0.318-0.07,0.628-0.211,0.929 s-0.332,0.541-0.575,0.721c-0.243,0.18-0.543,0.291-0.899,0.332C8.654,10.978,8.115,10.994,7.26,11H5V4z M6.341,5.165v1.619h0.879 c0.523,0,0.847-0.008,0.974-0.024c0.23-0.029,0.41-0.112,0.541-0.251c0.131-0.139,0.197-0.321,0.197-0.547 c0-0.216-0.057-0.392-0.17-0.528C8.649,5.3,8.48,5.218,8.257,5.189C8.124,5.173,7.742,5.165,7.111,5.165H6.341z M6.341,7.949v1.872 h1.241c0.483,0,0.79-0.014,0.92-0.043c0.199-0.038,0.362-0.131,0.487-0.279C9.114,9.35,9.176,9.152,9.176,8.904 c0-0.21-0.048-0.388-0.145-0.535c-0.097-0.146-0.236-0.253-0.419-0.32c-0.183-0.067-0.579-0.1-1.189-0.1H6.341z"/></svg>