<svg width="21" height="17" viewBox="0 0 21 17" fill="none" xmlns="http://www.w3.org/2000/svg">
<path d="M4.60254 12.5859C9.26052 14.9149 12.0553 14.9149 16.7133 12.5859" stroke="#B7B7B7" stroke-width="1.2" stroke-linecap="round" stroke-linejoin="round"/>
<path d="M13.9188 13.9828L14.8504 15.846C14.8504 15.846 18.7361 14.6088 19.9742 12.5854C19.9742 11.6538 20.4679 4.99569 17.1794 2.80364C15.782 1.87205 13.453 1.40625 13.453 1.40625L12.5214 3.26944H10.6582" stroke="#B7B7B7" stroke-width="1.2" stroke-linecap="round" stroke-linejoin="round"/>
<path d="M7.4235 13.9828L6.49191 15.846C6.49191 15.846 2.60622 14.6088 1.36813 12.5854C1.36813 11.6538 0.874383 4.99569 4.16292 2.80364C5.56031 1.87205 7.8893 1.40625 7.8893 1.40625L8.8209 3.26944H10.6841" stroke="#B7B7B7" stroke-width="1.2" stroke-linecap="round" stroke-linejoin="round"/>
<path d="M7.39739 10.7225C6.62603 10.7225 6 9.8887 6 8.85929C6 7.82987 6.62603 6.99609 7.39739 6.99609C8.16876 6.99609 8.79479 7.82987 8.79479 8.85929C8.79479 9.8887 8.16876 10.7225 7.39739 10.7225ZM13.9186 10.7225C13.1472 10.7225 12.5212 9.8887 12.5212 8.85929C12.5212 7.82987 13.1472 6.99609 13.9186 6.99609C14.6899 6.99609 15.316 7.82987 15.316 8.85929C15.316 9.8887 14.6899 10.7225 13.9186 10.7225Z" stroke="#B7B7B7" stroke-width="1.2" stroke-linecap="round" stroke-linejoin="round"/>
</svg>
