<svg width="19" height="17" viewBox="0 0 19 17" fill="none" xmlns="http://www.w3.org/2000/svg">
<path d="M18 1.00841C18 1.00841 16.4406 2.00486 15.5736 2.28741C15.1083 1.70852 14.4898 1.29822 13.8018 1.112C13.1138 0.925781 12.3896 0.972624 11.7271 1.24619C11.0645 1.51977 10.4956 2.00686 10.0973 2.64161C9.69899 3.27636 9.49049 4.02813 9.5 4.79525V5.6312C8.14203 5.6693 6.79644 5.34348 5.58305 4.68277C4.36967 4.02207 3.32615 3.04698 2.54545 1.84436C2.54545 1.84436 -0.545455 9.36789 6.40909 12.7117C4.81768 13.8803 2.92189 14.4663 1 14.3836C7.95455 18.5633 16.4545 14.3836 16.4545 4.77018C16.4545 4.53778 16.4329 4.30539 16.3927 4.07634C17.1809 3.23537 18 1.00841 18 1.00841Z" stroke="#B7B7B7" stroke-width="1.5" stroke-linecap="round" stroke-linejoin="round"/>
</svg>
