<svg width="17" height="17" viewBox="0 0 17 17" fill="none" xmlns="http://www.w3.org/2000/svg">
<path d="M8.5 0C6.81886 0 5.17547 0.498516 3.77766 1.43251C2.37984 2.3665 1.29037 3.69402 0.647028 5.24719C0.00368292 6.80036 -0.164645 8.50943 0.163329 10.1583C0.491303 11.8071 1.30085 13.3217 2.4896 14.5104C3.67834 15.6992 5.1929 16.5087 6.84173 16.8367C8.49057 17.1646 10.1996 16.9963 11.7528 16.353C13.306 15.7096 14.6335 14.6202 15.5675 13.2223C16.5015 11.8245 17 10.1811 17 8.5C16.9976 6.24639 16.1013 4.08576 14.5078 2.49222C12.9142 0.898677 10.7536 0.00237985 8.5 0ZM6.34476 11.7692H10.6552C10.2163 13.2682 9.48077 14.6192 8.5 15.6833C7.51923 14.6192 6.78366 13.2682 6.34476 11.7692ZM6.04808 10.4615C5.83122 9.16284 5.83122 7.83716 6.04808 6.53846H10.9519C11.1688 7.83716 11.1688 9.16284 10.9519 10.4615H6.04808ZM1.3077 8.5C1.30713 7.8367 1.39872 7.17654 1.57986 6.53846H4.72322C4.52816 7.83888 4.52816 9.16112 4.72322 10.4615H1.57986C1.39872 9.82345 1.30713 9.16329 1.3077 8.5ZM10.6552 5.23077H6.34476C6.78366 3.73183 7.51923 2.38082 8.5 1.31668C9.48077 2.38082 10.2163 3.73183 10.6552 5.23077ZM12.2768 6.53846H15.4201C15.783 7.82098 15.783 9.17902 15.4201 10.4615H12.2768C12.4718 9.16112 12.4718 7.83888 12.2768 6.53846ZM14.9052 5.23077H12.0095C11.6758 3.91777 11.1155 2.67312 10.3537 1.55288C11.3269 1.81444 12.2347 2.27679 13.0186 2.91021C13.8025 3.54363 14.4452 4.33409 14.9052 5.23077ZM6.64635 1.55288C5.88453 2.67312 5.32416 3.91777 4.99048 5.23077H2.09476C2.55485 4.33409 3.1975 3.54363 3.98139 2.91021C4.76528 2.27679 5.67306 1.81444 6.64635 1.55288ZM2.09476 11.7692H4.99048C5.32416 13.0822 5.88453 14.3269 6.64635 15.4471C5.67306 15.1856 4.76528 14.7232 3.98139 14.0898C3.1975 13.4564 2.55485 12.6659 2.09476 11.7692ZM10.3537 15.4471C11.1155 14.3269 11.6758 13.0822 12.0095 11.7692H14.9052C14.4452 12.6659 13.8025 13.4564 13.0186 14.0898C12.2347 14.7232 11.3269 15.1856 10.3537 15.4471Z" fill="#B7B7B7"/>
</svg>
